<?xml version="1.0" encoding="UTF-8" standalone="no"?>
<!-- Created with Inkscape (http://www.inkscape.org/) -->

<svg
   xmlns:dc="http://purl.org/dc/elements/1.1/"
   xmlns:cc="http://creativecommons.org/ns#"
   xmlns:rdf="http://www.w3.org/1999/02/22-rdf-syntax-ns#"
   xmlns:svg="http://www.w3.org/2000/svg"
   xmlns="http://www.w3.org/2000/svg"
   version="1.1"
   width="800"
   height="622"
   id="svg3087">
  <metadata
     id="metadata3093">
    <rdf:RDF>
      <cc:Work
         rdf:about="">
        <dc:format>image/svg+xml</dc:format>
        <dc:type
           rdf:resource="http://purl.org/dc/dcmitype/StillImage" />
        <dc:title></dc:title>
      </cc:Work>
    </rdf:RDF>
  </metadata>
  <defs
     id="defs3091" />
  <g
     transform="translate(0.78950239,-9.0254434e-7)"
     id="g3324">
    <path
       d="m 280.54795,607.1263 c -52.13668,-4.9824 -112.5906,-19.11985 -115.56214,-27.02478 -1.47157,-3.91468 22.48911,-29.32974 29.31214,-31.09134 2.5899,-0.66865 15.41182,2.29565 28.49315,6.58738 41.36237,13.57016 60.47091,16.06821 122.41438,16.00321 62.79211,-0.0658 80.32263,-2.45726 121.86117,-16.62326 33.9883,-11.59113 80.10773,-35.04966 110.86251,-56.38992 11.31023,-7.84798 12.51323,-7.89535 10.6754,-0.42036 -10.1995,41.48402 -136.98319,100.64119 -231.82685,108.17018 -25.58308,2.03088 -59.55456,2.38244 -76.22976,0.78889 z m -136.9578,-41.06155 c 8.25935,-41.91902 38.24299,-89.06239 70.58013,-110.97342 36.41015,-24.6708 68.69931,-27.37171 161.71174,-13.52682 85.52887,12.73098 108.60725,9.57272 138.09749,-18.89855 13.29076,-12.83155 14.18924,-12.2191 7.49775,5.11078 -26.84958,69.53602 -88.54176,96.97224 -183.13278,81.44423 -88.98152,-14.60715 -125.66707,-5.17134 -176.90992,45.50259 -19.00007,18.78915 -19.35653,19.01568 -17.84441,11.34119 z m -40.96917,-15.3355 C -50.530258,448.66965 8.9450058,254.59532 217.58311,175.59512 c 14.1873,-5.37198 14.69757,-3.52423 3.22064,11.66228 -11.50658,15.22574 -19.63022,30.34568 -25.91527,48.23422 -3.65707,10.40872 -6.42472,14.20594 -14.47542,19.86028 C 76.50683,328.32957 54.055226,425.81373 124.42347,498.45697 l 15.93032,16.44535 -7.1632,23.30074 c -8.4711,27.55516 -8.18992,27.43994 -30.56961,12.52619 z m 70.5297,-131.42811 c 0,-21.32816 24.15706,-67.40717 47.97013,-91.50188 42.24813,-42.74782 73.21756,-48.17516 184.35864,-32.30852 106.53859,15.20958 138.40778,13.77064 183.62354,-8.29092 15.31891,-7.47436 23.90711,-13.49673 34.81153,-24.41115 l 14.47564,-14.48895 -1.31827,8.29275 c -3.76147,23.66167 -34.99391,72.54803 -59.03702,92.40721 -42.86005,35.40165 -77.58172,39.51975 -192.91513,22.88043 -36.6578,-5.28868 -73.66418,-9.41281 -84.38356,-9.40399 -42.67448,0.0351 -81.67028,16.60919 -114.98276,48.87049 -9.64654,9.34213 -12.60274,11.20802 -12.60274,7.95453 z m 28.49316,-142.00976 c 0,-17.44907 19.77558,-61.34458 38.09159,-84.55125 41.35739,-52.40045 87.4569,-62.6759 201.90841,-45.0048 58.59822,9.04745 106.72655,11.04606 136.9863,5.68858 79.64467,-14.10106 150.35546,-52.16125 188.18102,-101.288693 7.83951,-10.181899 14.67978,-18.077562 15.20059,-17.545918 2.5742,2.627787 -7.57022,38.242619 -15.9582,56.025809 -45.7599,97.014602 -152.26591,154.223822 -268.5193,144.233922 -15.0685,-1.29485 -51.0685,-5.81004 -80,-10.03373 -69.90486,-10.20534 -79.7638,-10.96713 -103.51253,-7.99821 -39.4395,4.93047 -72.6748,21.93399 -98.979,50.63866 -10.68642,11.66165 -13.39888,13.65276 -13.39888,9.83563 z M 548.38295,110.2423 C 539.85817,81.196762 496.33418,64.508705 427.90801,64.049551 379.50336,63.724748 379.70998,64.041496 417.3125,47.804879 475.66216,22.609673 523.32449,13.34609 553.42663,21.349929 c 40.72627,10.828682 44.30733,45.513798 8.81523,85.381611 l -11.19765,12.57816 -2.66126,-9.0674 z"
       id="path3330"
       style="fill:#e6ad10" />
    <path
       d="m 143.59015,566.06475 c 8.25935,-41.91902 38.24299,-89.06239 70.58013,-110.97342 36.41015,-24.6708 68.69931,-27.37171 161.71174,-13.52682 85.52887,12.73098 108.60725,9.57272 138.09749,-18.89855 13.29076,-12.83155 14.18924,-12.2191 7.49775,5.11078 -26.84958,69.53602 -88.54176,96.97224 -183.13278,81.44423 -88.98152,-14.60715 -125.66707,-5.17134 -176.90992,45.50259 -19.00007,18.78915 -19.35653,19.01568 -17.84441,11.34119 z m 29.56053,-146.76361 c 0,-21.32816 24.15706,-67.40717 47.97013,-91.50188 42.24813,-42.74782 73.21756,-48.17516 184.35864,-32.30852 106.53859,15.20958 138.40778,13.77064 183.62354,-8.29092 15.31891,-7.47436 23.90711,-13.49673 34.81153,-24.41115 l 14.47564,-14.48895 -1.31827,8.29275 c -3.76147,23.66167 -34.99391,72.54803 -59.03702,92.40721 -42.86005,35.40165 -77.58172,39.51975 -192.91513,22.88043 -36.6578,-5.28868 -73.66418,-9.41281 -84.38356,-9.40399 -42.67448,0.0351 -81.67028,16.60919 -114.98276,48.87049 -9.64654,9.34213 -12.60274,11.20802 -12.60274,7.95453 z m 28.49316,-142.00976 c 0,-17.44907 22.5265,-66.34065 40.84251,-89.54732 41.35739,-52.40045 84.70598,-57.67983 199.15749,-40.00873 58.59822,9.04745 106.72655,11.04606 136.9863,5.68858 79.64467,-14.10106 150.35546,-52.16125 188.18102,-101.288693 7.83951,-10.181899 14.67978,-18.077562 15.20059,-17.545918 2.5742,2.627787 -7.57022,38.242619 -15.9582,56.025809 -45.7599,97.014602 -152.26591,154.223822 -268.5193,144.233922 -15.0685,-1.29485 -51.0685,-5.81004 -80,-10.03373 -69.90486,-10.20534 -79.7638,-10.96713 -103.51253,-7.99821 -39.4395,4.93047 -72.6748,21.93399 -98.979,50.63866 -10.68642,11.66165 -13.39888,13.65276 -13.39888,9.83563 z M 548.38295,110.2423 C 539.85817,81.196762 496.33418,64.508705 427.90801,64.049551 379.50336,63.724748 379.70998,64.041496 417.3125,47.804879 475.66216,22.609673 523.32449,13.34609 553.42663,21.349929 c 40.72627,10.828682 44.30733,45.513798 8.81523,85.381611 l -11.19765,12.57816 z"
       id="path3328"
       style="fill:#005da1" />
  </g>
</svg>
